<svg width="65" height="19" viewBox="0 0 65 19" fill="none" xmlns="http://www.w3.org/2000/svg">
<path d="M0.467314 18V1.11765H4.03668V15.0571H11.2743V18H0.467314ZM28.4947 9.55882C28.4947 11.3998 28.1457 12.9661 27.4478 14.2575C26.7553 15.549 25.8101 16.5354 24.612 17.2169C23.4195 17.8928 22.0786 18.2308 20.5893 18.2308C19.089 18.2308 17.7426 17.8901 16.5501 17.2086C15.3575 16.5272 14.415 15.5407 13.7226 14.2493C13.0302 12.9578 12.6839 11.3943 12.6839 9.55882C12.6839 7.71781 13.0302 6.15158 13.7226 4.86012C14.415 3.56867 15.3575 2.58496 16.5501 1.90901C17.7426 1.22756 19.089 0.886834 20.5893 0.886834C22.0786 0.886834 23.4195 1.22756 24.612 1.90901C25.8101 2.58496 26.7553 3.56867 27.4478 4.86012C28.1457 6.15158 28.4947 7.71781 28.4947 9.55882ZM24.8758 9.55882C24.8758 8.36629 24.6972 7.3606 24.34 6.54176C23.9883 5.72293 23.491 5.10193 22.848 4.67877C22.205 4.25561 21.4521 4.04403 20.5893 4.04403C19.7265 4.04403 18.9736 4.25561 18.3306 4.67877C17.6876 5.10193 17.1875 5.72293 16.8303 6.54176C16.4786 7.3606 16.3028 8.36629 16.3028 9.55882C16.3028 10.7514 16.4786 11.757 16.8303 12.5759C17.1875 13.3947 17.6876 14.0157 18.3306 14.4389C18.9736 14.862 19.7265 15.0736 20.5893 15.0736C21.4521 15.0736 22.205 14.862 22.848 14.4389C23.491 14.0157 23.9883 13.3947 24.34 12.5759C24.6972 11.757 24.8758 10.7514 24.8758 9.55882ZM42.3332 6.57474C42.2178 6.17356 42.0556 5.8191 41.8468 5.51135C41.638 5.1981 41.3824 4.93431 41.0802 4.71999C40.7834 4.50016 40.4427 4.33255 40.058 4.21714C39.6788 4.10174 39.2584 4.04403 38.7968 4.04403C37.934 4.04403 37.1756 4.25836 36.5216 4.68701C35.8731 5.11567 35.3675 5.73941 35.0048 6.55825C34.6421 7.37159 34.4608 8.36629 34.4608 9.54234C34.4608 10.7184 34.6394 11.7186 34.9966 12.5429C35.3538 13.3672 35.8594 13.9965 36.5134 14.4306C37.1673 14.8593 37.9395 15.0736 38.8297 15.0736C39.6376 15.0736 40.3273 14.9307 40.8988 14.645C41.4759 14.3537 41.9155 13.9443 42.2178 13.4167C42.5255 12.8891 42.6794 12.2654 42.6794 11.5455L43.4048 11.6526H39.0523V8.9653H46.1168V11.0921C46.1168 12.5759 45.8036 13.8509 45.1771 14.917C44.5506 15.9776 43.6878 16.7965 42.5887 17.3735C41.4896 17.945 40.2311 18.2308 38.8133 18.2308C37.2305 18.2308 35.8402 17.8818 34.6421 17.1839C33.4441 16.4805 32.5098 15.483 31.8394 14.1916C31.1744 12.8946 30.8419 11.3559 30.8419 9.57531C30.8419 8.20692 31.0398 6.9869 31.4355 5.91527C31.8366 4.83814 32.3972 3.92588 33.1171 3.17848C33.837 2.43109 34.6751 1.8623 35.6313 1.47211C36.5876 1.08193 37.6235 0.886834 38.7391 0.886834C39.6953 0.886834 40.5856 1.02697 41.4099 1.30724C42.2342 1.58202 42.9651 1.97221 43.6026 2.4778C44.2456 2.98339 44.7704 3.58515 45.1771 4.28309C45.5838 4.97553 45.8448 5.73941 45.9602 6.57474H42.3332ZM64.312 9.55882C64.312 11.3998 63.963 12.9661 63.265 14.2575C62.5726 15.549 61.6274 16.5354 60.4293 17.2169C59.2368 17.8928 57.8959 18.2308 56.4066 18.2308C54.9063 18.2308 53.5599 17.8901 52.3674 17.2086C51.1748 16.5272 50.2323 15.5407 49.5399 14.2493C48.8475 12.9578 48.5012 11.3943 48.5012 9.55882C48.5012 7.71781 48.8475 6.15158 49.5399 4.86012C50.2323 3.56867 51.1748 2.58496 52.3674 1.90901C53.5599 1.22756 54.9063 0.886834 56.4066 0.886834C57.8959 0.886834 59.2368 1.22756 60.4293 1.90901C61.6274 2.58496 62.5726 3.56867 63.265 4.86012C63.963 6.15158 64.312 7.71781 64.312 9.55882ZM60.6931 9.55882C60.6931 8.36629 60.5145 7.3606 60.1573 6.54176C59.8056 5.72293 59.3082 5.10193 58.6653 4.67877C58.0223 4.25561 57.2694 4.04403 56.4066 4.04403C55.5438 4.04403 54.7909 4.25561 54.1479 4.67877C53.5049 5.10193 53.0048 5.72293 52.6476 6.54176C52.2959 7.3606 52.1201 8.36629 52.1201 9.55882C52.1201 10.7514 52.2959 11.757 52.6476 12.5759C53.0048 13.3947 53.5049 14.0157 54.1479 14.4389C54.7909 14.862 55.5438 15.0736 56.4066 15.0736C57.2694 15.0736 58.0223 14.862 58.6653 14.4389C59.3082 14.0157 59.8056 13.3947 60.1573 12.5759C60.5145 11.757 60.6931 10.7514 60.6931 9.55882Z" fill="white"/>
</svg>
